name C:\Users\u0101727\Documents\MyRepositories\upper-imu-dc\Results\main_tracking\Case_32\ABD01_angularVelocities_bodyFrame.mot
datacolumns 4
datarows 105
range 4.56000000 5.60000000
endheader 
time	radius_imu_x	radius_imu_y	radius_imu_z	
          4.56000000	         -0.74291610	         -0.27261954	         -0.36662647	
          4.57000000	         -0.74064585	         -0.26783118	         -0.35789530	
          4.58000000	         -0.73906803	         -0.26595845	         -0.34932502	
          4.59000000	         -0.73828284	         -0.26497277	         -0.34130496	
          4.60000000	         -0.73840947	         -0.26263535	         -0.33424997	
          4.61000000	         -0.73952451	         -0.25733765	         -0.32852360	
          4.62000000	         -0.74157357	         -0.24857828	         -0.32433526	
          4.63000000	         -0.74430648	         -0.23705305	         -0.32165805	
          4.64000000	         -0.74727932	         -0.22445878	         -0.32021914	
          4.65000000	         -0.74993853	         -0.21308570	         -0.31957681	
          4.66000000	         -0.75175967	         -0.20522655	         -0.31924281	
          4.67000000	         -0.75237559	         -0.20246870	         -0.31878087	
          4.68000000	         -0.75162852	         -0.20503569	         -0.31783741	
          4.69000000	         -0.74952662	         -0.21143314	         -0.31611794	
          4.70000000	         -0.74615576	         -0.21866447	         -0.31336242	
          4.71000000	         -0.74160151	         -0.22308003	         -0.30935164	
          4.72000000	         -0.73591341	         -0.22161441	         -0.30394918	
          4.73000000	         -0.72912160	         -0.21300308	         -0.29715268	
          4.74000000	         -0.72128342	         -0.19852550	         -0.28911644	
          4.75000000	         -0.71253234	         -0.18190176	         -0.28012726	
          4.76000000	         -0.70311235	         -0.16822989	         -0.27053979	
          4.77000000	         -0.69339567	         -0.16228217	         -0.26070222	
          4.78000000	         -0.68388057	         -0.16688280	         -0.25090212	
          4.79000000	         -0.67515195	         -0.18208966	         -0.24133880	
          4.80000000	         -0.66778944	         -0.20543129	         -0.23210571	
          4.81000000	         -0.66223617	         -0.23287854	         -0.22316802	
          4.82000000	         -0.65867466	         -0.25997199	         -0.21434440	
          4.83000000	         -0.65696418	         -0.28265354	         -0.20532100	
          4.84000000	         -0.65667091	         -0.29766604	         -0.19571747	
          4.85000000	         -0.65718420	         -0.30265335	         -0.18519886	
          4.86000000	         -0.65788114	         -0.29618111	         -0.17360313	
          4.87000000	         -0.65828719	         -0.27782821	         -0.16104415	
          4.88000000	         -0.65818673	         -0.24837156	         -0.14795765	
          4.89000000	         -0.65765780	         -0.20997456	         -0.13507591	
          4.90000000	         -0.65703051	         -0.16622552	         -0.12332903	
          4.91000000	         -0.65678561	         -0.12186153	         -0.11367689	
          4.92000000	         -0.65741735	         -0.08209435	         -0.10689503	
          4.93000000	         -0.65929129	         -0.05166079	         -0.10337560	
          4.94000000	         -0.66253303	         -0.03390950	         -0.10302350	
          4.95000000	         -0.66697935	         -0.03022212	         -0.10529055	
          4.96000000	         -0.67220672	         -0.03989369	         -0.10932508	
          4.97000000	         -0.67763486	         -0.06041636	         -0.11417219	
          4.98000000	         -0.68267406	         -0.08803541	         -0.11896143	
          4.99000000	         -0.68685989	         -0.11843037	         -0.12303959	
          5.00000000	         -0.68993004	         -0.14735657	         -0.12602282	
          5.01000000	         -0.69182963	         -0.17114780	         -0.12777263	
          5.02000000	         -0.69266439	         -0.18709075	         -0.12833038	
          5.03000000	         -0.69263160	         -0.19372016	         -0.12784757	
          5.04000000	         -0.69194473	         -0.19104000	         -0.12653269	
          5.05000000	         -0.69075871	         -0.18059713	         -0.12461636	
          5.06000000	         -0.68911118	         -0.16529894	         -0.12232738	
          5.07000000	         -0.68690371	         -0.14892551	         -0.11987401	
          5.08000000	         -0.68393754	         -0.13542782	         -0.11743043	
          5.09000000	         -0.67999548	         -0.12821403	         -0.11513205	
          5.10000000	         -0.67493824	         -0.12961117	         -0.11308003	
          5.11000000	         -0.66876765	         -0.14059728	         -0.11134696	
          5.12000000	         -0.66161641	         -0.16081515	         -0.10996991	
          5.13000000	         -0.65366310	         -0.18880848	         -0.10892078	
          5.14000000	         -0.64501310	         -0.22236043	         -0.10805814	
          5.15000000	         -0.63560396	         -0.25881846	         -0.10708590	
          5.16000000	         -0.62518959	         -0.29535784	         -0.10555805	
          5.17000000	         -0.61343135	         -0.32919296	         -0.10295789	
          5.18000000	         -0.60007692	         -0.35775663	         -0.09883909	
          5.19000000	         -0.58515964	         -0.37886887	         -0.09297194	
          5.20000000	         -0.56913320	         -0.39093733	         -0.08542819	
          5.21000000	         -0.55287011	         -0.39324465	         -0.07656380	
          5.22000000	         -0.53750179	         -0.38629826	         -0.06690636	
          5.23000000	         -0.52415870	         -0.37204570	         -0.05700206	
          5.24000000	         -0.51371950	         -0.35368402	         -0.04729666	
          5.25000000	         -0.50665204	         -0.33498929	         -0.03809921	
          5.26000000	         -0.50297261	         -0.31942331	         -0.02962687	
          5.27000000	         -0.50231223	         -0.30942222	         -0.02208309	
          5.28000000	         -0.50405457	         -0.30611151	         -0.01570531	
          5.29000000	         -0.50749415	         -0.30940047	         -0.01074343	
          5.30000000	         -0.51196670	         -0.31826092	         -0.00737874	
          5.31000000	         -0.51691920	         -0.33104627	         -0.00563203	
          5.32000000	         -0.52191083	         -0.34579831	         -0.00531496	
          5.33000000	         -0.52656745	         -0.36051029	         -0.00605128	
          5.34000000	         -0.53053449	         -0.37330475	         -0.00735777	
          5.35000000	         -0.53347067	         -0.38251387	         -0.00875439	
          5.36000000	         -0.53510277	         -0.38671917	         -0.00987242	
          5.37000000	         -0.53533200	         -0.38483831	         -0.01053834	
          5.38000000	         -0.53434971	         -0.37629595	         -0.01081603	
          5.39000000	         -0.53268634	         -0.36122224	         -0.01099023	
          5.40000000	         -0.53113026	         -0.34058770	         -0.01148498	
          5.41000000	         -0.53053228	         -0.31620265	         -0.01273324	
          5.42000000	         -0.53157763	         -0.29052532	         -0.01503264	
          5.43000000	         -0.53460159	         -0.26628227	         -0.01842777	
          5.44000000	         -0.53948056	         -0.24597814	         -0.02265143	
          5.45000000	         -0.54561412	         -0.23140827	         -0.02714223	
          5.46000000	         -0.55201848	         -0.22329975	         -0.03113683	
          5.47000000	         -0.55753261	         -0.22117740	         -0.03381377	
          5.48000000	         -0.56110025	         -0.22346978	         -0.03445080	
          5.49000000	         -0.56205931	         -0.22778576	         -0.03255850	
          5.50000000	         -0.56035836	         -0.23128201	         -0.02796689	
          5.51000000	         -0.55662403	         -0.23110548	         -0.02085456	
          5.52000000	         -0.55203246	         -0.22493377	         -0.01171444	
          5.53000000	         -0.54800023	         -0.21157348	         -0.00125633	
          5.54000000	         -0.54578613	         -0.19143956	          0.00973914	
          5.55000000	         -0.54615060	         -0.16664512	          0.02057972	
          5.56000000	         -0.54920458	         -0.14052598	          0.03078894	
          5.57000000	         -0.55448165	         -0.11672633	          0.04016569	
          5.58000000	         -0.56116701	         -0.09823695	          0.04876426	
          5.59000000	         -0.56838507	         -0.08677143	          0.05680853	
          5.60000000	         -0.57546128	         -0.08264816	          0.06457502	
